<svg width="175" height="142" viewBox="0 0 175 142" fill="none" xmlns="http://www.w3.org/2000/svg">
<path d="M0 24.3098C0 10.8838 10.8377 0 24.2068 0H60.7088V54.0219C60.7088 60.8411 55.2039 66.3696 48.4134 66.3696H0V24.3098Z" fill="#3277F6"/>
<path d="M130.64 24.3098C130.64 10.8838 119.802 0 106.433 0H69.9307V42.4457H130.64V24.3098Z" fill="#54AFF8"/>
<path d="M174.439 63.2822H117.572V78.717H174.439V63.2822Z" fill="#3277F6"/>
<path d="M153.697 99.5539V42.4453H138.327V99.5539H153.697Z" fill="#3277F6"/>
<path d="M130.64 117.69C130.64 131.116 119.802 142 106.433 142H69.9307V99.5542H130.64V117.69Z" fill="#54AFF8"/>
<path d="M0 117.69C0 131.116 10.8377 142 24.2068 142H60.7088V87.978C60.7088 81.1588 55.2039 75.6304 48.4134 75.6304H0V117.69Z" fill="#3277F6"/>
</svg>
