<svg width="42" height="33" viewBox="0 0 42 33" fill="none" xmlns="http://www.w3.org/2000/svg">
<path d="M0 5.64945C0 2.52935 2.55006 0 5.69571 0H14.2844V12.5544C14.2844 14.1391 12.9892 15.4239 11.3914 15.4239H0V5.64945Z" fill="black"/>
<path d="M30.7386 5.64945C30.7386 2.52935 28.1885 0 25.0429 0H16.4541V9.86414H30.7386V5.64945Z" fill="black"/>
<path d="M41.0445 14.7063H27.6641V18.2933H41.0445V14.7063Z" fill="black"/>
<path d="M36.1642 23.1357V9.86401H32.5479V23.1357H36.1642Z" fill="black"/>
<path d="M30.7386 27.3504C30.7386 30.4705 28.1885 32.9999 25.0429 32.9999H16.4541V23.1357H30.7386V27.3504Z" fill="black"/>
<path d="M0 27.3506C0 30.4707 2.55006 33.0001 5.69571 33.0001H14.2844V20.4457C14.2844 18.861 12.9892 17.5762 11.3914 17.5762H0V27.3506Z" fill="black"/>
</svg>
