<svg width="274" height="222" viewBox="0 0 274 222" fill="none" xmlns="http://www.w3.org/2000/svg">
<path d="M0 38.0054C0 17.0156 17.0004 0 37.9714 0H95.2294V84.4568C95.2294 95.1177 86.5943 103.761 75.9426 103.761H0V38.0054Z" fill="#3277F6"/>
<path d="M204.925 38.0054C204.925 17.0156 187.925 0 166.954 0H109.695V66.3587H204.925V38.0054Z" fill="#54AFF8"/>
<path d="M273.63 98.9343H184.428V123.065H273.63V98.9343Z" fill="#3277F6"/>
<path d="M241.093 155.641V66.3582H216.984V155.641H241.093Z" fill="#3277F6"/>
<path d="M204.925 183.995C204.925 204.984 187.925 222 166.954 222H109.695V155.641H204.925V183.995Z" fill="#54AFF8"/>
<path d="M0 183.995C0 204.984 17.0004 222 37.9714 222H95.2294V137.543C95.2294 126.882 86.5943 118.239 75.9426 118.239H0V183.995Z" fill="#3277F6"/>
</svg>
